<svg xmlns="http://www.w3.org/2000/svg">
  <symbol id="vk" viewBox='0 0 89.51 89.48'>
    <path d="M41.79 0H47.73c.19.05.37.13.56.16 2.01.3 4.05.46 6.03.9 18.37 4.09 31.94 18.69 34.72 37.3.17 1.14.31 2.28.47 3.42v6.12c-.06.18-.15.37-.16.55-.37 4.77-1.5 9.36-3.37 13.75-9.55 22.42-35.04 33.07-57.74 24.13C7.92 78.32-3.73 56.34 1.08 35.06 5.2 16.81 19.83 3.24 38.37.47 39.51.3 40.65.16 41.79 0Zm6.82 39.51h.15c0-1.69.04-3.38 0-5.07-.06-2.08-.71-2.98-2.75-3.13-2.78-.2-5.57-.18-8.36-.14-1.25.02-2.49.34-3.4 1.34-.57.63-.53.79.28 1 1.48.37 2.44 1.24 2.62 2.78.16 1.44.34 2.9.29 4.35-.07 1.88-.24 3.77-.58 5.61-.23 1.25-1.25 1.52-2.26.71a9.68 9.68 0 0 1-1.73-1.83c-2.39-3.32-4.4-6.85-5.92-10.66-.58-1.45-1.56-2.07-3.1-2-1.22.06-2.45.02-3.67.03-1.37 0-2.74-.04-4.11.05-1.6.1-2.11.87-1.49 2.24 3.36 7.44 7.13 14.65 12.27 21.06 5.06 6.32 11.65 9.14 19.72 8.49 1.33-.11 1.96-.76 2.07-2.12.05-.61.02-1.25.18-1.82.31-1.04.63-2.11 1.14-3.06.4-.73 1.21-.93 1.98-.44.65.42 1.3.89 1.84 1.45 1.2 1.23 2.31 2.54 3.51 3.77 1.57 1.62 3.43 2.51 5.77 2.38 2.3-.13 4.6-.08 6.9-.15.57-.02 1.17-.1 1.71-.29 1.33-.47 1.76-1.44 1.1-2.68-.5-.95-1.06-1.9-1.78-2.68-2.11-2.29-4.33-4.47-6.48-6.73-1.36-1.42-1.44-2.32-.3-3.95 1.22-1.74 2.59-3.37 3.78-5.13 1.59-2.36 3.23-4.71 4.56-7.21 1.19-2.22.45-3.18-2.07-3.17-3 .01-6 .04-9 .06-1.66.01-1.96.21-2.59 1.78-1.4 3.47-3.1 6.77-5.3 9.8-.71.98-1.54 1.91-2.43 2.72-.89.81-1.66.6-2.12-.52-.26-.63-.39-1.35-.42-2.03-.06-1.6-.02-3.2-.02-4.8Z"/>
  </symbol>
  <symbol id="telegram" viewBox="0 0 382.91 383.09">
    <path d="M183.12 0h16.46l6.1.63c7.28.92 14.64 1.45 21.83 2.83 37.57 7.23 70.21 24.19 97.48 51 34.31 33.73 53.48 74.7 57.29 122.75.21 1.78.41 3.57.62 5.35v18.71l-.62 4.6c-.75 6.18-1.27 12.4-2.29 18.53-14.69 88.07-91.59 155.54-180.85 158.54-46.71 1.57-89.2-11.27-125.61-40.66-56.16-45.35-80.5-104.75-71.81-176.39C7.92 114.72 32.74 73.05 73.11 41 103.5 16.87 138.26 3.48 177.02.63l6.1-.63Zm-26.79 275.24c-.29 4.23.54 4.85 4.45 2.93 1.64-.81 3.13-2.04 4.47-3.32 7.14-6.79 14.27-13.59 21.25-20.53 1.76-1.74 2.84-1.85 4.88-.33 14.26 10.68 28.64 21.21 42.99 31.77 10.19 7.5 17.23 4.82 19.85-7.54 7.17-33.73 14.35-67.45 21.52-101.18 3.21-15.1 6.48-30.19 9.55-45.31 1.02-5.04 1.78-10.38-2.7-14.31-4.4-3.86-9.11-1.77-13.7 0-44.23 17.07-88.46 34.1-132.69 51.17-17.06 6.58-34.13 13.16-51.12 19.92-3.44 1.37-7.43 3.31-7.15 7.69.28 4.43 4.58 5.47 8.14 6.6 14.23 4.5 28.51 8.85 42.72 13.45 2.78.9 4.85.53 7.26-1 34.74-21.97 69.53-43.86 104.33-65.72 1.87-1.17 3.94-2.12 6.04-2.79.82-.26 1.98.53 2.98.84-.38.85-.57 1.9-1.19 2.52-1.93 1.95-4 3.75-6.04 5.58-26.83 24.23-53.67 48.45-80.45 72.75-1.16 1.06-2.28 2.78-2.4 4.28-1.13 14.16-2.03 28.34-3 42.52Z"/>
  </symbol>
  <symbol id="github" viewBox="0 0 97.63 96">
    <path d="M48.85 0C21.84 0 0 22 0 49.22c0 21.76 13.99 40.17 33.4 46.69 2.43.49 3.32-1.06 3.32-2.36 0-1.14-.08-5.05-.08-9.13-13.59 2.93-16.42-5.87-16.42-5.87-2.18-5.7-5.42-7.17-5.42-7.17-4.45-3.01.32-3.01.32-3.01 4.93.33 7.52 5.05 7.52 5.05 4.37 7.5 11.4 5.38 14.24 4.07.4-3.18 1.7-5.38 3.07-6.6-10.84-1.14-22.24-5.38-22.24-24.28 0-5.38 1.94-9.78 5.01-13.2-.49-1.22-2.18-6.27.49-13.04 0 0 4.12-1.3 13.43 5.05a46.65 46.65 0 0 1 12.21-1.63c4.12 0 8.33.57 12.21 1.63 9.3-6.36 13.43-5.05 13.43-5.05 2.67 6.76.97 11.82.49 13.04 3.15 3.42 5.01 7.82 5.01 13.2 0 18.91-11.4 23.06-22.32 24.28 1.78 1.55 3.32 4.48 3.32 9.13 0 6.6-.08 11.9-.08 13.53 0 1.3.89 2.85 3.32 2.36 19.41-6.52 33.4-24.93 33.4-46.69C97.71 22 75.79 0 48.85 0Z"/>
  </symbol>
</svg>