<svg xmlns="http://www.w3.org/2000/svg" viewBox="0 0 382.91 383.09">
  <path d="M183.12 0h16.46l6.1.63c7.28.92 14.64 1.45 21.83 2.83 37.57 7.23 70.21 24.19 97.48 51 34.31 33.73 53.48 74.7 57.29 122.75.21 1.78.41 3.57.62 5.35v18.71l-.62 4.6c-.75 6.18-1.27 12.4-2.29 18.53-14.69 88.07-91.59 155.54-180.85 158.54-46.71 1.57-89.2-11.27-125.61-40.66-56.16-45.35-80.5-104.75-71.81-176.39C7.92 114.72 32.74 73.05 73.11 41 103.5 16.87 138.26 3.48 177.02.63l6.1-.63Zm-26.79 275.24c-.29 4.23.54 4.85 4.45 2.93 1.64-.81 3.13-2.04 4.47-3.32 7.14-6.79 14.27-13.59 21.25-20.53 1.76-1.74 2.84-1.85 4.88-.33 14.26 10.68 28.64 21.21 42.99 31.77 10.19 7.5 17.23 4.82 19.85-7.54 7.17-33.73 14.35-67.45 21.52-101.18 3.21-15.1 6.48-30.19 9.55-45.31 1.02-5.04 1.78-10.38-2.7-14.31-4.4-3.86-9.11-1.77-13.7 0-44.23 17.07-88.46 34.1-132.69 51.17-17.06 6.58-34.13 13.16-51.12 19.92-3.44 1.37-7.43 3.31-7.15 7.69.28 4.43 4.58 5.47 8.14 6.6 14.23 4.5 28.51 8.85 42.72 13.45 2.78.9 4.85.53 7.26-1 34.74-21.97 69.53-43.86 104.33-65.72 1.87-1.17 3.94-2.12 6.04-2.79.82-.26 1.98.53 2.98.84-.38.85-.57 1.9-1.19 2.52-1.93 1.95-4 3.75-6.04 5.58-26.83 24.23-53.67 48.45-80.45 72.75-1.16 1.06-2.28 2.78-2.4 4.28-1.13 14.16-2.03 28.34-3 42.52Z"/>
</svg>