<svg xmlns="http://www.w3.org/2000/svg" viewBox='0 0 89.51 89.48'>
  <path d="M41.79 0H47.73c.19.05.37.13.56.16 2.01.3 4.05.46 6.03.9 18.37 4.09 31.94 18.69 34.72 37.3.17 1.14.31 2.28.47 3.42v6.12c-.06.18-.15.37-.16.55-.37 4.77-1.5 9.36-3.37 13.75-9.55 22.42-35.04 33.07-57.74 24.13C7.92 78.32-3.73 56.34 1.08 35.06 5.2 16.81 19.83 3.24 38.37.47 39.51.3 40.65.16 41.79 0Zm6.82 39.51h.15c0-1.69.04-3.38 0-5.07-.06-2.08-.71-2.98-2.75-3.13-2.78-.2-5.57-.18-8.36-.14-1.25.02-2.49.34-3.4 1.34-.57.63-.53.79.28 1 1.48.37 2.44 1.24 2.62 2.78.16 1.44.34 2.9.29 4.35-.07 1.88-.24 3.77-.58 5.61-.23 1.25-1.25 1.52-2.26.71a9.68 9.68 0 0 1-1.73-1.83c-2.39-3.32-4.4-6.85-5.92-10.66-.58-1.45-1.56-2.07-3.1-2-1.22.06-2.45.02-3.67.03-1.37 0-2.74-.04-4.11.05-1.6.1-2.11.87-1.49 2.24 3.36 7.44 7.13 14.65 12.27 21.06 5.06 6.32 11.65 9.14 19.72 8.49 1.33-.11 1.96-.76 2.07-2.12.05-.61.02-1.25.18-1.82.31-1.04.63-2.11 1.14-3.06.4-.73 1.21-.93 1.98-.44.65.42 1.3.89 1.84 1.45 1.2 1.23 2.31 2.54 3.51 3.77 1.57 1.62 3.43 2.51 5.77 2.38 2.3-.13 4.6-.08 6.9-.15.57-.02 1.17-.1 1.71-.29 1.33-.47 1.76-1.44 1.1-2.68-.5-.95-1.06-1.9-1.78-2.68-2.11-2.29-4.33-4.47-6.48-6.73-1.36-1.42-1.44-2.32-.3-3.95 1.22-1.74 2.59-3.37 3.78-5.13 1.59-2.36 3.23-4.71 4.56-7.21 1.19-2.22.45-3.18-2.07-3.17-3 .01-6 .04-9 .06-1.66.01-1.96.21-2.59 1.78-1.4 3.47-3.1 6.77-5.3 9.8-.71.98-1.54 1.91-2.43 2.72-.89.81-1.66.6-2.12-.52-.26-.63-.39-1.35-.42-2.03-.06-1.6-.02-3.2-.02-4.8Z"/>
</svg>