<svg xmlns="http://www.w3.org/2000/svg" viewBox="0 0 256 256" fill='#1ecaf2'>
<g data-name="Слой 2">
<g data-name="Слой 1-2">
<path d="M26.87.01h4.33c.82.27 1.65.6 2.47 0h.21c.11.47.39.25.6.27 1.09.14 2.19.23 3.28.38 6.4.92 12.53 3.58 18.75 5.66 7.73 2.59 15.03 6.77 21.74 12.73 1.95 1.73 3.72 1.92 5.92 1.17 7.29-2.45 14.66-4.37 22.04-6.28 1.54-.39 2.59.51 3 2.67.87 4.57 1.52 9.22 2.14 13.86 1.06 8.02.27 15.81-1.62 23.46-2.29 9.25-6.15 16.93-11.7 23.01-.25.27-.58.47-.69 1.04h.52c4.32-.11 7.89-2.82 11.25-6.22 1.38-1.4 2.75-2.83 4.1-4.29.54-.58.95-.75 1.64-.18.95.79 1.77 1.8 2.61 2.75 3.55 3.97 7.54 7.11 11.06 11.11 2.64 3.01 5.1 6.33 7.79 9.28 3.73 4.1 7.67 7.87 11.07 12.48 3.12 4.21 6.29 8.29 9.81 11.88 2.7 2.76 4.9 6.33 7.27 9.62 6.34 8.82 12.34 17.99 17.61 28.1 4.66 8.97 7.6 18.84 8.74 29.63 1.17 11.15.88 22.38.21 33.59a99.4 99.4 0 0 1-1.08 9.81c-.28 1.74-.06 2.03 1.18 1.99 4.77-.15 9.5-.66 14.2-2.01 6.13-1.77 12.08-4.06 17.53-8.54 7.36-6.04 12.33-14.7 15.25-25.69 1.91-7.19 2.65-14.74 3.31-22.32.43-4.94.45-9.82-.13-14.7-1.39-11.8-4.95-22.23-10.46-31.43-5-8.34-11.02-15.02-17.65-20.68-12.32-10.52-24.65-21.02-37.04-31.36-6.97-5.82-13.45-12.58-19.86-19.48-3.85-4.15-6.44-9.81-6.9-16.84-.45-6.81.34-13.38 3.38-18.86 4.77-8.61 11.37-11.69 19.02-10.31 5.4.98 10.46 3.7 15.33 7.04 7.84 5.36 15 12.32 22.61 18.23 4.21 3.27 8.27 6.88 12.36 10.41 2.23 1.93 4.48 3.83 6.77 5.63 1.34 1.05 1.79 2.58 1.35 4.41-.51 2.1-1.31 2.76-2.99 2.49-.87-.14-1.66-.57-2.42-1.1-11.62-8.03-23.24-16.13-34.9-24.09-4.59-3.14-9.19-6.35-14.29-7.71-1.67-.45-3.33-1.01-5.07-.9-2.48.15-4.37 1.98-6.24 3.91-.47.5-.83 1.11-1.13 1.82-2.19 5.15-.55 13.41 3.26 17.19 8.72 8.65 17.89 16.32 27.18 23.7 7.6 6.03 15.2 12.05 22.8 18.08 3.55 2.82 6.65 6.49 9.97 9.76 3.84 3.79 7.36 8.02 10.59 12.76 3.74 5.49 7.39 11.05 10.28 17.49 2.21 4.92 4.03 10.07 5.47 15.51 1.5 5.7 2.68 11.5 3.12 17.56-.05.88-.13 1.75.19 2.58v4.55c-.17.2-.21.46-.21.76.02 2.13.03 4.28.04 6.41 0 .65-.02 1.3-.03 1.96-.27 4-.7 7.97-1.38 11.9-1.45 8.4-3.84 16.3-6.42 24.15-4.34 13.13-11.32 22.99-19.61 31.3-3.55 3.57-7.53 6.16-11.69 8.13-6.92 3.26-13.92 6-21.26 6.72-8.59 0-17.19 0-25.78.01h-4.3c-.17 0-.34-.04-.52-.04h-43.01c-.21 0-.41.04-.61.06-.88-.11-1.11-.89-1.11-1.97 0-4.12.14-8.26-.03-12.37-.27-6.47-1.66-12.29-5.91-15.98-3.02-2.62-6.32-4.18-9.9-3.97-3.92.24-7.45 2.3-10.68 5.32-3.91 3.67-7.61 7.77-11.37 11.72-4.61 4.83-9.43 9.29-13.69 14.74-.5.64-1.06 1.2-1.66 1.68-1.22 1.01-2.94.95-3.8-.04-.8-.91-1.13-2.96-.64-4.6.59-1.96.82-4.02.9-6.08.25-6.37.39-12.76.03-19.15-.35-6.22-.53-12.46-.81-18.7-.37-8.31-1.34-16.55-2.43-24.74-1.42-10.69-2.87-21.39-5.28-31.77-1.79-7.67-2.35-15.88-5.4-22.97-3.02-12-8.4-22.17-13.55-32.44-3.64-7.26-7.97-13.85-11.98-20.76-2.38-4.1-5.14-7.77-7.29-12.13-3.68-7.46-7.12-15.11-9.87-23.35C3.89 29.92 1.53 21.22.29 11.96c0-.77 0-1.54-.02-2.31-1.39-3.77 2.88-4.81 3.55-5.05 1.65-.58 3.32-1.04 4.96-1.67 3.64-1.4 7.3-2.46 11.08-2.67.4 0 .81-.02 1.21-.04 1.31.02 2.64.08 3.95.05.62-.01 1.28.28 1.86-.27Zm19.76 40.15c4.51.13 8.52-4.92 8.2-12.06-.29-6.48-3.12-11.13-8.38-11-4.67.11-8.24 4.5-8.19 11.72.04 6.65 4.02 11.45 8.37 11.33Z"/>
<path d="M52.18 182.36c.29 1.26 0 1.71-1 1.73-1.36.02-2.3 1.13-3.05 2.71-2.04 4.35-3.58 9.02-4.75 13.92-.32 1.32-.96 2.19-1.99 2.32-1.06.14-1.86-.51-2.43-1.71-.7-1.48-1.04-3.19-1.44-4.83-.94-3.85-1.98-7.71-1.77-11.86.53-10.33 3.42-19.08 9.37-25.64.83-.91 1.73-1.68 2.76-2.16.42-.19.7-.23.84.51 1.72 8.19 3.23 16.42 3.45 25Z"/>
</g>
</g>
</svg>