<?xml version="1.0" encoding="UTF-8"?>
<svg id="_Слой_2" data-name="Слой 2" xmlns="http://www.w3.org/2000/svg" viewBox="0 0 133.82 133.15">
  <defs>
    <style>
      .cls-1 {
        fill: #1ecaf2;
      }
    </style>
  </defs>
  <g id="_Слой_1-2" data-name="Слой 1">
    <path class="cls-1" d="M133.82,63.17v7.06c-.07,.51-.13,1.02-.22,1.53-.76,4.4-1.1,8.93-2.36,13.19-6.43,21.7-20.4,36.55-41.48,44.7-4.7,1.82-9.61,2.91-14.64,3.51v-52.43h16.04c.81-6.28,1.6-12.39,2.41-18.63h-18.52c0-3.91,0-7.69,0-11.47,0-.74,0-1.48,.08-2.22,.52-4.85,2.8-7.01,7.73-7.2,3.3-.13,6.62-.1,9.92-.15,.46,0,.91,0,1.34,0V24.35c-6.22-.51-12.37-1.08-18.54-.4-10.45,1.14-18.31,8.7-19.31,19.1-.56,5.79-.37,11.65-.51,17.47-.01,.5,0,1.01,0,1.61h-16.01v18.7h15.94v51.83c-.25-.02-.43-.02-.6-.05-10.83-2.02-20.61-6.38-29.3-13.16-8.74-6.82-15.38-15.3-19.92-25.4C.4,81.94-1.21,69.27,.89,56.2c2.23-13.87,8.2-26,18.13-35.96C35.2,4.02,54.82-2.43,77.45,.82c12.92,1.86,24.29,7.41,34.01,16.15,11.47,10.32,18.63,23.11,21.32,38.34,.46,2.6,.7,5.24,1.04,7.86Z"/>
  </g>
</svg>