<?xml version="1.0" encoding="UTF-8"?>
<svg id="_Слой_2" data-name="Слой 2" xmlns="http://www.w3.org/2000/svg" viewBox="0 0 368 368">
  <defs>
    <style>
      .cls-1 {
        fill: #1ecaf2;
      }
    </style>
  </defs>
  <g id="_Слой_1-2" data-name="Слой 1">
    <path class="cls-1" d="M0,0H368V368H0V0ZM184.44,104c-24.75,0-49.4,0-74.06,0-5.39,0-9.38,3.96-9.38,9.32-.01,48.48,0,96.96,0,145.44,0,3.38,2,5.71,5.31,6.23,4,.63,8.01,1.02,12.08,1.12,2.68,.07,5.03-.93,7.58-1.21,4.8-.52,8.24-1.77,8.13-7.93-.29-16.99-.1-33.98-.1-50.98v-5h5.29c12.83,0,25.66-.05,38.48,.04,2.84,.02,4.54-.97,5.42-3.7,1.49-4.62,2.5-9.3,1.4-14.09-.2-.88-.64-1.81-.55-2.73,.24-2.6-.64-4.71-2.67-6.65h-47.11v-42.87h49.11c3.73-2.64,4.84-6.32,4.67-10.61-.11-2.83,.05-5.67-.04-8.49-.1-2.93-.83-5.66-3.53-7.9Zm23.62,156.57c.91,.91,1.61,1.94,2.59,2.52,1.85,1.09,3.86,1.93,5.8,2.87,1.6-1.79,3.71-.9,5.56-.91,22.82-.07,45.64-.04,68.56-.04,.76-.78,1.96-1.49,2.29-2.48,.64-1.93,.95-4,1.09-6.04,.18-2.49-.05-5,.06-7.49,.2-4.43-.77-8.32-5-11.21h-43.02V111.67c0-1.17,.09-2.34-.02-3.5-.15-1.53-2.4-4.29-3.75-4.09-3.02,.45-5.67-1.17-8.59-1.11-5.16,.09-10.34-.21-15.48,.11-3.39,.21-6.73,1.22-10.08,1.87v155.62Z"/>
  </g>
</svg>