<?xml version="1.0" encoding="UTF-8"?>
<svg id="_Слой_2" data-name="Слой 2" xmlns="http://www.w3.org/2000/svg" viewBox="0 0 384 367.73">
  <defs>
    <style>
      .cls-1 {
        fill: #1ecaf2;
      }
    </style>
  </defs>
  <g id="_Слой_1-2" data-name="Слой 1">
    <path class="cls-1" d="M384,204.11c-.21,.09-.6,.16-.61,.27-.32,2.88-.45,5.78-.94,8.63-.33,1.9-.38,3.87-.84,5.66-.45,1.79-.77,3.68-1.19,5.45-.62,2.61-1.07,5.31-1.64,7.97-1.24,5.82-2.98,11.48-4.97,17.07-2.1,5.87-4.17,11.77-7.05,17.33-1.06,2.05-1.99,4.18-3.01,6.25-3.05,6.18-6.46,12.15-10.35,17.83-2.87,4.2-5.75,8.4-8.77,12.48-1.59,2.15-3.62,3.97-5.25,6.09-4.54,5.94-10.22,10.78-15.43,16.08-4.92,5-10.61,9.1-16.15,13.38-4.34,3.35-8.87,6.44-13.46,9.31-6.37,3.99-13.04,7.55-19.9,10.72-6.2,2.87-12.6,5.19-19.01,7.51-2.5,.91-4.92,1.54-7.64,1.53-4.49-.03-8.59-4.15-8.57-8.63,.08-18.75,0-37.49,.08-56.24,0-1.74-.56-3.29-.76-4.94-.18-1.54-.04-3.05-.7-4.59-.64-1.48-.3-3.39-.97-4.84-2.72-5.88-4.75-12.24-10.94-16.66,3.11,.12,5.35-1.14,7.9-.96,1.12,.08,2.28-.47,3.44-.69,1.04-.2,2.09,.25,3.15-.62,.6-.49,1.93-.03,2.91-.16,.91-.13,1.8-.47,2.69-.72,5.58-1.58,11.27-2.69,16.72-4.89,3.76-1.52,7.52-3.02,11.09-4.9,4.71-2.49,9.27-5.26,13.16-9.01,1.21-1.17,2.79-1.97,3.88-3.23,4.46-5.11,8.83-10.3,11.99-16.39,1.87-3.6,3.71-7.25,4.9-11.08,1.03-3.32,2.68-6.52,2.77-10.11,.03-1.19,.5-2.4,.89-3.38,.62-1.58,.12-3.25,.71-4.57,.71-1.57,.33-3.12,.69-4.6,1.22-5.12,.65-10.3,.61-15.45,0-1.17,2.04-2.33,.11-3.51,0-1.5,0-3,0-4.5,0-1.37,.21-2.79-.04-4.12-1.13-6.08-2.17-12.2-4.72-17.91-.71-1.58-1.23-3.25-2.01-4.79-2.33-4.63-5.04-9.02-8.33-13.05-1.14-1.4-2.2-2.87-3.68-4.82-.24-.94,.26-2.36,.72-3.87,.75-2.47,1.17-5.05,1.68-7.59,1.19-5.92,.82-11.86,.46-17.7-.36-5.8-1.8-11.57-3.79-17.12-.43-1.2-.94-2.36-1.52-3.79-.74-.66-2.32,.52-3.14-.83-.07-.12-.51-.13-.71-.04-2.31,1.12-4.89,.24-7.17,.84-2.92,.76-5.93,1.31-8.77,2.32-6.77,2.4-13.31,5.34-19.58,8.85-3.56,1.99-7.35,3.77-10.44,6.36-2.38,1.99-4.55,1.65-6.72,.82-1.07-.41-2.27,.1-3.07-.68-.88-.86-2.15-.03-2.74-.58-1.02-.94-2.1-.45-3.12-.71-3.25-.82-6.56-1.14-9.86-1.62-1.9-.28-3.86-.25-5.7-.67-4.01-.92-8.14-.12-12.05-.84-3.45-.63-6.82-.51-10.22-.55-2.14-.03-4.29,.55-6.44,.67-2.24,.13-4.61-.4-6.72,.15-2.19,.57-4.39,.2-6.45,.71-3.91,.98-7.99,.81-11.86,2.1-1.89,.63-4.08,.35-6.02,.88-1.92,.52-3.74,1.31-5.77,1.47-.66,.05-1.29,.48-1.78,.67-2.89-1.77-5.7-3.48-8.49-5.2-4.74-2.94-9.69-5.52-14.75-7.85-5.38-2.47-10.95-4.42-16.76-5.73-2.04-.46-4.03-.69-6.08-.67-.5,0-1.21,.21-1.46-.04-1.13-1.11-2.04-.82-3.2-.02-.5,.34-1.44,.06-2.3,.06-1.37,4.73-2.97,9.31-4.09,14.11-1.7,7.31-1.29,14.61-1.24,21.91,.02,2.74,1.1,5.49,1.79,8.22,.45,1.79,1.08,3.53,1.68,5.46-2.47,3.29-5.16,6.79-7.74,10.36-3.04,4.21-6.29,11.15-7.86,15.86-1.1,3.31-1.5,6.82-2.96,10.02-.09,.21,0,.5-.02,.74-.24,2.52-.6,5.04-.72,7.56-.13,2.62-.03,5.25-.03,7.87,0,2.37-.09,4.75,.02,7.12,.17,3.52,.19,7.1,.85,10.54,.34,1.79,.43,3.56,.69,5.33,.24,1.58,1.06,3.07,1.41,4.64,.39,1.74,.36,3.58,.82,5.3,.66,2.45,1.46,4.89,2.43,7.24,1.32,3.2,2.6,6.46,4.34,9.44,2.8,4.82,5.54,9.73,9.68,13.62,.82,.77,1.61,1.57,2.39,2.39,6.23,6.57,13.55,11.55,21.79,15.28,4.04,1.83,13.23,4.93,16.99,6.07,3.94,1.2,8.03,1.51,11.94,2.81,2.12,.7,4.56,.4,6.78,.88,2.23,.49,4.45,.88,7.56,.55-4.27,3.55-6.67,7.51-8.68,11.63-1.68,3.44-2.95,7.13-3.22,11.02-.17,2.33-1.52,3.93-3.46,4.4-3.29,.81-6.44,2.11-9.9,2.5-1.75,.2-3.54,.47-5.33,.62-1.04,.09-2.08,.78-3.06,.67-6.32-.68-12.67-1.12-18.41-4.41-5.11-2.93-9.17-6.59-12.42-10.79-2.48-3.19-4.39-6.77-6.89-9.87-2.36-2.93-5.09-5.66-8.24-7.95-2.02-1.47-4.05-2.78-6.3-3.84-2.87-1.35-5.74-2.48-8.93-2.95-1.38-.2-2.78-.79-4.2-.6-1.74,.23-3.5,.55-5.14,1.15-2.63,.97-2.74,1.74-1.64,4.34,.81,1.91,2.26,3.12,3.85,4.2,3.75,2.56,7.66,4.89,10.85,8.2,4.65,4.82,8.05,10.47,10.93,16.47,.95,1.98,1.75,4.03,2.64,6.03,1.95,4.33,4.33,8.45,7.9,11.73,2.43,2.24,4.71,4.72,7.43,6.55,2.66,1.79,5.74,2.98,8.71,4.27,1.59,.69,3.63,.64,4.91,1.64,1.53,1.2,3.52-.25,4.74,1.33,.05,.07,.22,.05,.34,.06,2.77,.25,5.54,.6,8.31,.72,2.87,.13,5.75,.04,8.62,.02,1.19,0,2.15-.87,3.44-.82,1.27,.05,2.57,.41,3.94-.39,.94-.55,2.4-.14,3.61-.32,.62-.09,1.18-.53,2.15-1v2.54c0,7.37-.02,14.75,.02,22.12,0,1.29-.18,2.53,.6,3.89,.55,.95-.06,2.59-.21,3.92-.04,.33-.43,.65-.39,.94,.42,2.96-1.4,4.77-3.31,6.51-1.18,1.07-2.54,1.52-4.2,1.66-4.83,.42-9.04-1.46-13.4-3.02-3.92-1.41-7.81-2.95-11.56-4.67-4.51-2.06-9.11-4.09-13.27-6.92-1.63-1.11-3.45-1.93-5.15-2.95-2.61-1.56-5.2-3.15-7.77-4.77-2.19-1.38-4.43-2.7-6.48-4.26-3.82-2.91-7.45-6.09-11.31-8.95-3.19-2.37-5.71-5.43-8.74-7.92-1.79-1.47-3.6-2.91-5.18-4.59-1.58-1.68-3.02-3.49-4.52-5.24-1.5-1.75-3.35-3.14-4.58-5.21-1.16-1.96-2.97-3.52-4.42-5.31-1.89-2.33-3.91-4.58-5.53-7.09-2.23-3.45-4.84-6.64-6.71-10.33-1.2-2.38-2.7-4.62-4.03-6.94-1.85-3.23-3.66-6.46-5.25-9.84-3.69-7.86-6.99-15.85-9.69-24.11-1.63-4.97-3.05-10.02-4.27-15.07-.74-3.06-1.31-6.27-1.79-9.44-.29-1.91-.1-3.96-.74-5.66-.7-1.84-.41-3.58-.65-5.36-.12-.91-.56-1.78-.7-2.7-.15-.97-.09-1.96-.17-2.94,0-.1-.39-.17-.6-.26,0-10.5,0-21,0-31.5,.21-.09,.6-.16,.62-.27,.32-2.75,.6-5.51,.88-8.26,.05-.49-.21-1.21,.04-1.46,.93-.93,.59-2.04,.73-3.1,.16-1.16,.62-2.28,.7-3.44,.18-2.49,1-4.85,1.42-7.27,.42-2.45,1.16-4.81,1.67-7.22,.7-3.28,1.9-6.46,2.76-9.71,.6-2.25,1.66-4.34,2.34-6.52,1.2-3.89,2.64-7.69,4.39-11.3,3.12-6.46,6.07-13.02,9.87-19.17,3.71-6.02,7.46-11.97,11.67-17.67,3.58-4.84,7.44-9.42,11.3-14,3.37-3.99,7.26-7.58,11.09-11.16,3.73-3.49,7.68-6.75,11.55-10.09,1.37-1.18,2.73-2.39,4.2-3.43,3.08-2.18,6.19-4.31,9.35-6.37,5.28-3.43,10.68-6.64,16.25-9.61,6.04-3.22,12.21-6.09,18.52-8.7,4.28-1.77,8.6-3.4,13.03-4.73,3.56-1.07,7.17-2,10.75-3.02,2.14-.61,4.25-1.26,6.48-1.62,1.51-.24,3.12-.29,4.53-.76,2.03-.69,4.11-1.08,6.18-1.3,2.15-.22,4.19-1.3,6.43-.83,.48,.1,1.17,.23,1.47-.02,1.66-1.37,3.57-.44,5.34-.71,1.89-.28,3.79-.71,5.69-.72,8.5-.08,16.99-.03,25.49-.03,.75,0,1.68-.29,2.22,.05,1.72,1.1,3.57,.51,5.34,.71,1.78,.2,3.54,.53,5.31,.73,2.52,.29,5.17,.1,7.53,.85,3.92,1.24,7.98,1.88,11.95,2.71,3.68,.78,7.36,1.7,10.91,2.74,8.31,2.43,16.43,5.53,24.29,9.19,6.19,2.88,12.21,6.13,18.27,9.29,1.55,.81,3.03,1.81,4.43,2.87,4.16,3.14,8.64,5.8,12.86,8.88,5.37,3.93,10.51,8.1,15.32,12.63,6.72,6.33,13.35,12.79,18.89,20.25,2.15,2.89,4.67,5.52,6.64,8.51,2.2,3.33,4.59,6.53,6.7,9.93,2.04,3.28,4.17,6.56,5.86,9.97,2.97,5.99,6.32,11.82,8.67,18.14,1.4,3.78,2.8,7.58,4.33,11.32,1.59,3.88,2.64,7.96,3.58,11.98,.88,3.76,2.13,7.47,2.56,11.38,.18,1.62,.08,3.51,.75,4.88,.6,1.25,.41,2.35,.61,3.5,.23,1.27,.58,2.53,.73,3.82,.34,2.87,.58,5.76,.9,8.63,.01,.11,.4,.18,.61,.27v30.75Z"/>
  </g>
</svg>