<?xml version="1.0" encoding="UTF-8"?>
<svg id="_Слой_2" data-name="Слой 2" xmlns="http://www.w3.org/2000/svg" viewBox="0 0 512 512">
  <defs>
    <style>
      .cls-1 {
        fill: #1ecaf2;
      }
    </style>
  </defs>
  <g id="_Слой_1-2" data-name="Слой 1">
    <g>
      <path class="cls-1" d="M253,0c2,0,4,0,6,0,1.33,.33,2.67,.67,4,1,1,0,2,0,3,0,2.73-.05,5.47-.1,8.2-.15,9.58,1.11,19.3,1.52,28.72,3.45,81.28,16.63,141.67,61.69,180.72,134.78,16.57,31,25.73,64.4,27.49,99.66l-.11,11.22c.32,1.35,.65,2.69,.97,4.04v4c-.32,1.35-.65,2.7-.97,4.04,.03,3.74,.07,7.47,.1,11.21-1.54,11.86-2.17,23.92-4.76,35.55-16.75,75.27-58.87,132.2-125.62,170.62-32.9,18.94-68.57,29.45-106.56,31.73-2.73-.05-5.46-.09-8.19-.14-1,0-2,0-3,0-1.67,.33-3.33,.67-5,1h-4c-2.02-.32-4.05-.63-6.07-.95-3.37,.02-6.75,.05-10.12,.07-11.37-1.48-22.95-2.06-34.08-4.57-81.11-18.32-140.56-64.82-178.03-138.97-14.93-29.54-23.21-61.11-24.83-94.3,.04-3.75,.08-7.5,.12-11.24-.33-1.68-.65-3.36-.98-5.03,0-.67,0-1.33,0-2,.33-1.68,.65-3.36,.98-5.03-.04-3.75-.08-7.5-.12-11.25,1.9-13.48,2.75-27.21,5.88-40.4C23.2,128.89,62.22,75.32,122.62,37.6,157.77,15.64,196.31,3.43,237.79,.84c2.74,.05,5.47,.1,8.21,.15,1,0,2,0,3,0l4-1Zm3.36,110.02c-21.16,0-42.32-.39-63.47,.12-17.03,.41-33.33,4.42-47.71,14.09-23.85,16.03-34.29,39.71-34.87,67.3-.91,42.96-.57,85.96-.07,128.94,.19,16.48,4.55,32.29,13.91,46.23,16.14,24.03,39.98,34.42,67.75,35.01,42.63,.89,85.29,.49,127.94,.1,14.75-.14,29.08-3.63,42.04-11.09,27.33-15.73,39.17-40.86,39.83-71.03,.94-42.46,.6-84.96,.07-127.44-.23-18.23-5.16-35.54-16.39-50.45-16.53-21.95-39.69-30.67-66.07-31.61-20.96-.75-41.98-.15-62.97-.16Z"/>
      <path class="cls-1" d="M256.02,135.04c22.37,.64,44.54,.73,66.63,2.03,30.99,1.82,51.31,21.27,52.12,52.24,1.15,44.42,1.15,88.92,0,133.34-.8,30.91-21.21,50.56-52.11,52.31-44.42,2.51-88.9,2.51-133.32,0-30.95-1.75-51.28-21.29-52.1-52.28-1.17-44.42-1.17-88.92,0-133.34,.81-30.99,21.15-50.46,52.1-52.27,22.26-1.3,44.6-1.4,66.69-2.03Zm75.42,121.02c.05-41.76-33.75-75.55-75.51-75.49-41.61,.06-75.12,33.45-75.38,75.12-.26,41.66,33.45,75.59,75.27,75.75,41.7,.16,75.57-33.6,75.62-75.38Zm-14.52-78.75c-.09,9.75,7.45,17.6,17.07,17.78,9.97,.19,17.96-7.48,18.06-17.32,.1-9.7-7.5-17.61-17.1-17.8-9.96-.19-17.94,7.48-18.03,17.34Z"/>
      <path class="cls-1" d="M304.99,256.09c-.04,26.94-22,48.88-48.95,48.9-27.13,.02-49.16-22.16-49.02-49.33,.14-26.9,22.23-48.74,49.2-48.64,26.94,.09,48.81,22.1,48.77,49.08Z"/>
    </g>
  </g>
</svg>