<?xml version="1.0" encoding="UTF-8"?>
<svg id="_Слой_2" data-name="Слой 2" xmlns="http://www.w3.org/2000/svg" viewBox="0 0 512 512">
  <defs>
    <style>
      .cls-1 {
        fill: #1ecaf2;
      }
    </style>
  </defs>
  <g id="_Слой_1-2" data-name="Слой 1">
    <path class="cls-1" d="M258,512h-4c-1.41-1.66-3.32-.77-5.01-.99-.67,0-1.34,.02-2.01,.03-1.01,.02-2.01,.04-3.02,.06-.67,.02-1.34,.04-2.01,.05-.66,0-1.33,0-1.99,0-.66,0-1.33,0-1.99,0-.67,0-1.33,0-2,0-.66,0-1.33,0-1.99-.01-14.9-1.55-29.65-3.93-44.14-7.85C85.17,475,10.06,385.13,.82,277.05c0-.67,.01-1.34,.02-2.02,0-.67,0-1.33,.01-2,0-.66,.01-1.33,.02-1.99,0-.67,0-1.33,0-2,.02-.67,.04-1.34,.06-2.02,.02-.67,.03-1.34,.05-2.01,0-.67,.01-1.34,.02-2.01-.23-1.69,.67-3.6-1-5.01v-4c1.66-1.4,.77-3.32,1-5.01,0-.67-.01-1.34-.02-2.01-.03-.68-.06-1.36-.09-2.04-.01-1.01-.02-2.01-.04-3.02,0-.99,0-1.98,.01-2.97-.01-.66-.02-1.33-.03-1.99,0-.67-.01-1.35-.02-2.02,1.45-16.44,4.23-32.64,8.78-48.51C39.02,83.64,126.44,11.34,233.97,.84c.66,0,1.32,0,1.98,0l2.99-.03c.67,.01,1.34,.02,2.01,.03,.67,0,1.34,0,2,.01,.67,.02,1.35,.04,2.02,.06,.67,.01,1.34,.03,2.01,.04,.67,0,1.34,0,2.01,.01,1.38-.14,2.96,.49,4.01-.99h6c1.05,1.48,2.62,.85,4.01,.99,.68-.02,1.35-.04,2.03-.06,.67-.02,1.35-.04,2.02-.07,1,0,1.99,.01,2.99,.02,.66,0,1.33-.02,1.99-.03,.67,0,1.33,0,2-.01h2c.66,0,1.33,0,1.99,0,10.91,1.23,21.76,2.73,32.52,5.01,108.86,23,191.95,117.83,200.61,229.09,0,1-.02,2.01-.02,3.01,0,1,.01,2,.02,3,0,.67,0,1.34-.01,2-.02,.67-.05,1.35-.07,2.02-.01,.67-.03,1.34-.04,2.01,0,.67-.01,1.34-.02,2.01,.22,1.69-.67,3.6,.99,5.01v4c-1.66,1.41-.77,3.32-.99,5.01,.02,1.01,.04,2.02,.06,3.03,.03,.67,.06,1.35,.09,2.02-.01,1-.02,1.99-.03,2.99,.02,.67,.03,1.33,.05,2,0,1-.02,1.99-.03,2.99,0,.66,0,1.32,0,1.98-1.04,10.1-2.32,20.17-4.44,30.1-23.87,111.64-116.21,193.26-229.66,203.06-.67,0-1.34-.01-2.01-.02-.66-.01-1.33-.02-1.99-.03-.99,.02-1.98,.03-2.97,.05-.68-.02-1.35-.05-2.03-.08l-3.02-.06c-.67-.01-1.34-.02-2.01-.03-1.69,.22-3.6-.68-5.01,.99Zm21.45-287.27c-.34-.22-.68-.43-1.02-.65,0-6.8-.19-13.61,.08-20.39,.14-3.55-1.03-4.47-4.49-4.43-15.33,.18-30.66,.08-45.98,.08q-11.97,0-11.79,12.21c.02,1.67,.04,3.33,.04,5-.07,55.32-.09,110.63-.3,165.95-.01,3.79,.93,4.65,4.64,4.6,17.83-.21,35.66-.19,53.48-.01,3.39,.03,4.48-.68,4.42-4.29-.22-15.49-.14-30.99-.08-46.48,.07-19.99,.17-39.98,.35-59.97,.07-8.44,4-15.31,9.36-21.49,13.25-15.27,44.15-15.86,52.58,9.05,2.59,7.66,3.36,15.57,3.35,23.61-.05,31.66,.05,63.31-.12,94.97-.02,3.75,.89,4.66,4.62,4.62,17.66-.22,35.32-.21,52.98,0,3.8,.04,4.94-.81,4.92-4.81-.18-33.66-.11-67.31-.1-100.97,0-10.85-.65-21.64-3.37-32.2-7.14-27.78-23.22-47.03-52.37-52.46-28.65-5.34-53.21,1.47-70.46,26.79-.28,.4-.48,.86-.72,1.28Zm-97.77,68.8c0-29.81-.06-59.62,.08-89.43,.02-3.54-.59-4.92-4.56-4.87-17.98,.23-35.97,.18-53.96,.03-3.34-.03-4.13,.99-4.13,4.24,.1,59.79,.11,119.57-.02,179.36,0,3.74,1.3,4.24,4.55,4.21,17.82-.15,35.64-.19,53.46,.03,3.73,.04,4.7-.85,4.68-4.63-.17-29.64-.1-59.29-.1-88.93ZM115.67,141.63c.12,18.97,14.72,32.42,35.02,32.24,20.41-.18,35.27-13.9,35.09-32.41-.19-19.19-14.86-32.62-35.46-32.45-20.43,.17-34.77,13.67-34.65,32.62Z"/>
  </g>
</svg>