<?xml version="1.0" encoding="UTF-8"?>
<svg id="_Слой_2" data-name="Слой 2" xmlns="http://www.w3.org/2000/svg" viewBox="0 0 383.41 383.31">
  <defs>
    <style>
      .cls-1 {
        fill: #1ecaf2;
      }
    </style>
  </defs>
  <g id="_Слой_1-2" data-name="Слой 1">
    <path class="cls-1" d="M0,193.18v-5.24c1.47-2.98,.72-6.11,.64-9.2-.21-4.26,.43-8.48,1.05-12.65,7.4-50.57,30.75-92.3,70.72-124.1C116.48,6.92,166.97-6.11,222.48,2.63c46.01,7.25,84.57,29.11,114.61,64.73,40.09,47.54,54.44,102.53,41.93,163.34-11.71,56.93-44.24,99.69-94.67,128.51-24.44,13.97-50.93,21.76-79.11,23.45-2.04-.03-4.09-.07-6.13-.1-.75,0-1.5,0-2.25,0-1.26,.18-2.7-.5-3.74,.75h-2.99c-1.05-1.25-2.48-.57-3.74-.75-.75,0-1.5,0-2.25,0l-6.13,.1c-12-.5-23.8-2.49-35.31-5.75-59.4-16.87-101.85-53.55-127.13-109.87C6.68,247.24,1.69,226.37,.63,204.62c.03-2.55,.06-5.11,.09-7.66-.14-1.28,.52-2.71-.72-3.78ZM297.91,125.74c-.24,.08-.49,.16-.73,.24-7.18,2.6-14.43,4.94-23.05,5.82,9.22-6.19,15.38-13.66,18.93-24.17-8.14,4.7-16.06,7.79-24.37,9.91-2.32,.59-3.97,.32-5.91-1.48-24.51-22.78-64.69-10.6-72.65,21.91-1.65,6.73-1.48,13.48-.27,20.55-36.97-2.62-66.95-18.04-90.66-45.87-4.31,6.67-6.55,16.25-5.98,24.47,.98,14.17,7.53,25.26,19.14,34.1-7.27-.24-13.38-2.35-19.61-5.25,.19,10.74,3.31,19.86,9.66,27.84,6.3,7.92,14.5,12.94,24.26,15.49-.42,.87-1.05,.92-1.66,1.04-5.43,1.02-10.87,1.05-16.88-.03,7.31,19,20.88,28.85,40.9,30.9-9.42,7.32-19.38,12.25-30.24,15.31-10.94,3.09-22.11,4.02-33.57,2.83,.85,1.46,2.22,1.9,3.37,2.57,17.54,10.15,36.4,15.94,56.68,16.87,26.58,1.22,51.74-3.97,74.01-18.87,38.4-25.69,57.1-62.3,57.78-108.28,.04-2.57,.51-4.26,2.7-5.91,7.11-5.36,13.19-11.77,18.2-19.16,.51-.19,.85-.6,.57-1.08-.26-.43-.54-.15-.62,.26Z"/>
  </g>
</svg>