<?xml version="1.0" encoding="UTF-8"?>
<svg id="_Слой_2" data-name="Слой 2" xmlns="http://www.w3.org/2000/svg" viewBox="0 0 384 384">
  <defs>
    <style>
      .cls-1 {
        fill: #1ecaf2;
      }
    </style>
  </defs>
  <g id="_Слой_1-2" data-name="Слой 1">
    <path class="cls-1" d="M206.25,384h-30c-.09-.21-.14-.59-.27-.62-1.74-.37-3.51-.07-5.3-.78-1.71-.68-3.73,.04-5.7-.73-1.68-.66-3.75-.44-5.66-.75-3.17-.51-6.21-1.76-9.48-1.63-2.08-1.47-4.87-.76-6.95-2.23-2.72,.36-4.89-1.87-7.59-1.59-6.85-2.46-13.77-4.8-20.4-7.78-7.39-3.32-14.52-7.22-21.62-11.14-1.4-.77-2.89-1.57-4.2-2.56-4.66-3.49-9.61-6.57-14.19-10.22-3.07-2.44-6.46-4.67-9.21-7.38-8.09-7.96-16.54-15.58-23.52-24.66-3.13-4.07-6.09-8.26-9.16-12.37-3.29-4.42-6.18-9.15-8.69-14.02-3.39-6.57-7.05-13.04-9.6-20.01-1.11-3.04-2.38-6.02-3.52-9.04-1.97-5.22-3.53-10.57-4.89-15.95-.95-3.74-2.08-7.46-2.64-11.32-.25-1.77-.2-3.74-.83-5.26-.57-1.38-.35-2.61-.59-3.88-.23-1.27-.57-2.53-.73-3.82-.34-2.75-.58-5.51-.9-8.26-.01-.11-.4-.18-.61-.27,0-10.5,0-21,0-31.5,.21-.09,.6-.16,.61-.27,.08-.98,.02-1.98,.16-2.95,.14-.91,.55-1.78,.71-2.7,.3-1.79-.47-3.66,.46-5.44,.84-1.6-.32-3.66,1.05-5.18-.52-2,.54-3.79,.8-5.68,.27-1.95,1.14-3.82,1.41-5.76,.62-4.43,1.91-8.74,3.25-12.92,2.65-8.23,5.55-16.42,9.52-24.17,1.85-3.6,3.52-7.29,5.27-10.94,1.76-3.68,3.96-7.16,6.12-10.56,5.44-8.56,11.28-16.94,18.28-24.27,7.74-8.12,15.42-16.35,24.4-23.25,4.07-3.13,8.26-6.09,12.37-9.16,4.42-3.29,9.15-6.18,14.02-8.69,6.57-3.39,13.04-7.05,20.01-9.6,3.04-1.11,6.02-2.38,9.04-3.52,5.22-1.97,10.57-3.53,15.95-4.89,3.74-.95,7.46-2.08,11.32-2.64,1.77-.25,3.74-.2,5.26-.83,1.38-.57,2.61-.35,3.88-.59,1.27-.23,2.53-.57,3.82-.73,2.75-.34,5.51-.58,8.26-.9,.11-.01,.18-.4,.27-.61,10,0,20,0,30,0,.32,.25,.63,.69,.97,.72,2.28,.18,4.54,.3,6.83,.62,3.54,.5,7.09,.85,10.6,1.63,1.98,.44,4.15,.21,6.01,.88,1.54,.56,3.1,.32,4.55,.77,5.76,1.79,11.63,3.2,17.35,5.11,6.47,2.16,12.81,4.63,18.97,7.54,3.87,1.83,7.73,3.67,11.49,5.75,4.28,2.38,8.54,4.77,12.63,7.46,2.57,1.69,5.02,3.61,7.6,5.21,5.41,3.37,9.97,7.77,15.03,11.54,1.98,1.48,3.65,3.41,5.31,5.27,1.57,1.76,3.44,3.2,5.07,4.9,4.66,4.87,9.39,9.65,13.45,15.06,2.66,3.54,5.57,6.89,8.1,10.52,3.21,4.61,6.24,9.38,8.93,14.28,4.12,7.48,7.76,15.24,11.17,23.08,1.32,3.03,2.47,6.22,3.27,9.52,.81,3.36,2.67,6.46,2.91,10.01,2.64,5.32,2.57,11.35,4.43,16.89,.47,1.41,.22,3.01,.69,4.57,.46,1.53,.56,3.26,.8,4.91,.5,3.48,.56,7.02,.86,10.54,.03,.34,.47,.65,.72,.97v30c-.21,.09-.62,.19-.61,.26,.16,2.2-.72,4.25-.89,6.39-.23,2.77-.14,5.64-.87,8.28-.47,1.69-.16,3.43-.72,4.94-1.44,3.88-1.73,8-2.9,11.92-.96,3.23-1.96,6.44-2.84,9.69-1.03,3.81-2.34,7.5-3.88,11.14-1.48,3.51-2.64,7.15-4.34,10.57-1.13,2.28-2.01,4.68-3.22,6.91-3.32,6.15-6.45,12.41-10.44,18.19-1.75,2.53-3.54,5.03-5.22,7.59-3.77,5.75-8.02,11.14-12.75,16.03-7.63,7.89-15.03,16.07-23.96,22.61-3.56,2.61-7.01,5.37-10.59,7.95-2.57,1.85-5.26,3.57-7.94,5.26-2.37,1.49-4.72,3.06-7.24,4.25-6.69,3.15-13.09,6.92-20.02,9.59-2.8,1.08-5.48,2.53-8.35,3.37-5.36,1.57-10.53,3.81-16.11,4.57-2.23,1.43-4.94,1.26-7.34,2.18-2.42,.92-5.09,.95-7.63,1.41-1.39,.25-2.7,.96-4.16,.91-1.56-.05-3.05,.3-4.59,.61-3.19,.64-6.52,.61-9.79,.87-.54,.04-1.33-.29-1.34,.74Zm13.85-148.5c4.33,0,4.34-.01,7.8,2.26,.8,.53,1.6,1.11,2.25,1.8,3.12,3.32,6.52,6.35,9.38,9.95,2.7,3.4,6.07,6.29,9.21,9.33,1.48,1.43,3.07,2.76,4.73,3.97,3.06,2.23,6.6,3.6,10.27,4.09,3.32,.44,6.75,.3,10.11,.04,3.48-.28,6.78,.86,10.19,.81,6.03-.09,12.05,.23,18.08-.64,1.95-.28,3.75-.6,5.35-1.63,2.74-1.77,4.67-3.93,4.62-7.64-.04-2.84-1.35-5.09-2.68-7.16-4.51-6.99-9.62-13.56-15.55-19.45-5.77-5.72-11.5-11.49-17.24-17.23-.53-.53-1.16-.99-1.57-1.6-1.5-2.21-2.83-4.68-1.88-7.33,.97-2.7,2.23-5.45,3.97-7.7,4.36-5.66,8.43-11.54,12.73-17.23,4.24-5.6,8.34-11.28,12.4-17.01,4.03-5.69,7.61-12.82,9.54-19.3,.9-3.04-.2-5.8-3.02-7.13-2.37-1.12-4.98-1.62-7.55-1.64-12.37-.1-24.75-.08-37.12-.01-1.9,0-3.82,.34-5.68,.77-.86,.2-1.85,.81-2.32,1.54-1.26,1.95-2.51,3.96-3.31,6.11-1.5,4.01-3.15,7.96-5,11.81-2.93,6.09-6.37,11.9-9.88,17.69-3.22,5.33-7.16,10.04-10.83,14.96-1.99,2.66-4.68,4.8-6.97,7.09-.55,0-.92,0-1.3,0-2.95-.03-4.65-1.19-5.02-3.97-.25-1.9-1.07-3.66-.9-5.69,.15-1.86-.5-3.78-.64-5.68-.12-1.62-.12-3.26,0-4.87,.12-1.53,.68-3.04,.69-4.57,.07-9.75,.06-19.5,.02-29.25,0-2.42-.92-4.55-2.37-6.52-1.68-2.28-4.15-3.51-6.64-3.82-3.11-.38-6.2-1.04-9.42-.96-9.24,.22-18.5,.13-27.75,.04-2.33-.02-4.65,.08-6.79,.84-2.64,.94-5.32,2.01-7.22,4.28-2.4,2.87-1.48,5.45,2.12,6.17,5.53,1.11,9.36,4.85,10.03,10.95,.43,3.99,.45,8.05,.64,12.07,.29,5.98,.63,12.02-.42,18.08-.57,3.26-.94,6.65-1.79,9.82-1.04,3.9-2.85,4.94-6.66,3.02-1.57-.79-3.08-1.92-4.27-3.22-2.19-2.39-4.33-4.88-6.1-7.59-5.44-8.29-10.81-16.65-15.05-25.63-2.22-4.7-4.78-9.24-6.26-14.29-.95-3.26-3.75-5.29-6.05-7.61-2.57-.35-4.92-1.63-7.58-1.62-12,.03-24,.01-36.1,.01-.29,.31-.61,.69-.97,1.04-2.27,2.22-2.99,4.56-1.72,7.78,.59,1.49,1.37,2.93,1.87,4.48,.5,1.53,1.34,2.94,2.02,4.41,1.75,3.77,3.43,7.58,5.27,11.32,3.11,6.35,6.15,12.72,9.63,18.9,3.26,5.77,6.44,11.59,9.81,17.3,2.62,4.44,5.36,8.8,8.24,13.08,2.77,4.12,5.4,8.37,8.56,12.17,2.16,2.6,3.94,5.52,6.3,7.91,5.97,6.04,11.62,12.46,18.74,17.21,3.1,2.07,6.12,4.28,9.49,6,3.41,1.74,6.88,3.33,10.37,4.87,2.42,1.08,5.02,1.8,7.59,2.49,1.82,.49,3.9,.31,5.54,1.1,1.83,.89,3.97-.41,5.52,1.18,3.56-.25,7.05,.5,10.57,.68,4.14,.21,8.29,.15,12.45-.59,3.45-.61,6.5-2.7,7.73-6.06,.43-1.17,.87-2.26,.66-3.46-.24-1.41,.74-2.56,.73-3.82-.03-3.28,1.53-6.26,1.55-9.5,1.29-1.14,.33-3.05,1.49-4.26,1.1-1.15,2.13-2.36,3.36-3.75Z"/>
  </g>
</svg>